<svg width="20" height="20" viewBox="0 0 20 20" fill="none" xmlns="http://www.w3.org/2000/svg">
<path d="M10.0996 0.706184L10.2 0.699951C10.6078 0.699951 10.9444 1.00514 10.9938 1.3996L11 1.49995V9.19995H18.7C19.1078 9.19995 19.4444 9.50514 19.4938 9.8996L19.5 9.99995C19.5 10.4078 19.1948 10.7444 18.8003 10.7937L18.7 10.8H11V18.5C11 18.9078 10.6948 19.2444 10.3003 19.2937L10.2 19.3C9.79215 19.3 9.45559 18.9948 9.40623 18.6003L9.39999 18.5V10.8H1.69999C1.29215 10.8 0.955592 10.4948 0.906227 10.1003L0.899994 9.99995C0.899994 9.59211 1.20518 9.25555 1.59964 9.20618L1.69999 9.19995H9.39999V1.49995C9.39999 1.09211 9.70518 0.75555 10.0996 0.706184L10.2 0.699951L10.0996 0.706184Z" fill="#007AFF"/>
</svg>
