<svg width="36" height="36" viewBox="0 0 36 36" fill="none" xmlns="http://www.w3.org/2000/svg">
<path fill-rule="evenodd" clip-rule="evenodd" d="M18 36C27.9411 36 36 27.9411 36 18C36 8.05887 27.9411 0 18 0C8.05887 0 0 8.05887 0 18C0 27.9411 8.05887 36 18 36Z" fill="#EDEDFF"/>
<path fill-rule="evenodd" clip-rule="evenodd" d="M15.1173 14.4238C15.3348 14.2634 15.3855 13.9593 15.2318 13.737L12.7458 10.1418C12.6021 9.9339 12.3276 9.86792 12.1198 10.0117C11.2848 10.5895 9.40116 12.2341 10.1701 14.916C11.1464 18.3213 14.3829 21.7919 14.3829 21.7919C14.3829 21.7919 19.0669 26.1107 21.255 26.1107C22.4794 26.1107 23.186 26.1183 24.6284 24.6486C24.7124 24.563 25.2542 23.8778 25.5414 23.5131C25.6481 23.3776 25.646 23.1941 25.5749 23.0369V23.0369C25.1644 22.1296 22.3669 20.8344 21.3788 20.3999C21.1745 20.3101 20.9382 20.3718 20.7992 20.5465L20.016 21.53C19.6874 21.9427 19.098 22.0253 18.6914 21.6892C18.1326 21.2273 17.3193 20.499 16.4709 19.5475C15.5155 18.476 14.5765 17.2366 14.0022 16.4513C13.6831 16.0149 13.7835 15.4074 14.2186 15.0865L15.1173 14.4238Z" fill="#007AFF"/>
</svg>
