<svg width="22" height="22" viewBox="0 0 22 22" fill="none" xmlns="http://www.w3.org/2000/svg">
<path fill-rule="evenodd" clip-rule="evenodd" d="M8.67955 4.9567L6.87343 1.90414C6.06909 0.544685 4.31498 0.0946839 2.95553 0.899035C2.71245 1.04286 2.49201 1.2219 2.30139 1.43033C0.944762 2.9137 0.337482 4.32605 0.53717 5.66529C0.946397 8.40983 2.87595 11.5447 6.30409 15.1037L6.60181 15.3978L6.89633 15.6959L6.90214 15.6916C10.4553 19.124 13.5902 21.0536 16.3347 21.4628C17.674 21.6625 19.0863 21.0552 20.5697 19.6986C20.7781 19.508 20.9571 19.2876 21.101 19.0445C21.9053 17.685 21.4553 15.9309 20.0959 15.1266L17.0433 13.3205L16.8915 13.2378C16.1728 12.8796 15.3176 12.9036 14.6167 13.3109L13.6655 13.8635L13.555 13.9209C13.0684 14.1443 12.488 14.0448 12.1032 13.6601L8.33993 9.89675L8.25623 9.80463C7.91561 9.3915 7.86311 8.80493 8.13646 8.33449L8.68913 7.38334C9.12549 6.63237 9.12182 5.70419 8.67955 4.9567ZM19.7598 18.8131C18.5048 19.9609 17.4288 20.4127 16.5117 20.2759C14.1546 19.9245 11.3397 18.2373 8.08615 15.1632L7.52591 14.6257L7.14745 14.25C3.88274 10.8601 2.0878 7.92787 1.72405 5.48832C1.5873 4.57117 2.03915 3.49517 3.1869 2.24018C3.29755 2.1192 3.42549 2.01528 3.56659 1.9318C4.31182 1.49087 5.26138 1.69935 5.75788 2.3886L5.84067 2.5152L7.64678 5.56776C7.8678 5.94131 7.86964 6.40517 7.65157 6.78046L7.0989 7.73162C6.57438 8.63431 6.66918 9.7661 7.33036 10.568L7.45178 10.7037L11.2547 14.5086C11.993 15.2468 13.1113 15.4451 14.0558 15.0114L14.218 14.9288L15.2195 14.3484C15.5686 14.1456 15.9961 14.1323 16.3562 14.3118L16.4697 14.3745L19.4848 16.1593C20.2739 16.6262 20.5351 17.6443 20.0682 18.4334C19.9847 18.5745 19.8808 18.7025 19.7598 18.8131Z" fill="#007AFF"/>
</svg>
