<svg width="23" height="20" viewBox="0 0 23 20" fill="none" xmlns="http://www.w3.org/2000/svg">
<path fill-rule="evenodd" clip-rule="evenodd" d="M15.2926 1.54944C14.8171 1.11529 14.1996 0.875 13.5593 0.875H10.0526C9.41249 0.875 8.7951 1.11517 8.31965 1.54911L7.63139 2.1773C7.16363 2.60423 6.55622 2.84052 5.92647 2.84052C3.06758 2.84052 0.75 5.18716 0.75 8.0819V14.6336C0.75 17.5284 3.06758 19.875 5.92647 19.875H17.5735C20.4324 19.875 22.75 17.5284 22.75 14.6336V8.0819C22.75 5.18716 20.4324 2.84052 17.5735 2.84052L17.3884 2.83282C16.8974 2.79189 16.4312 2.58904 16.0628 2.25267L15.2926 1.54944ZM10.0526 2.07495H13.5593C13.8997 2.07495 14.2287 2.20299 14.4835 2.43557L15.2537 3.1388C15.8168 3.65297 16.5321 3.96555 17.2887 4.02862L17.5237 4.03943C19.7663 4.04047 21.55 5.84653 21.55 8.08185V14.6336C21.55 16.8689 19.7663 18.675 17.5735 18.675H5.92647C3.73369 18.675 1.95 16.8689 1.95 14.6336V8.08185C1.95 5.91427 3.62723 4.15032 5.72829 4.04541L6.15805 4.03325C7.00389 3.98045 7.80922 3.63963 8.44035 3.06358L9.12862 2.43539C9.38331 2.20293 9.7123 2.07495 10.0526 2.07495ZM11.75 5.88C14.5114 5.88 16.75 8.11858 16.75 10.88C16.75 13.6414 14.5114 15.88 11.75 15.88C8.98858 15.88 6.75 13.6414 6.75 10.88C6.75 8.11858 8.98858 5.88 11.75 5.88ZM7.95 10.88C7.95 8.78127 9.65131 7.07996 11.75 7.07996C13.8487 7.07996 15.55 8.78127 15.55 10.88C15.55 12.9786 13.8487 14.68 11.75 14.68C9.65131 14.68 7.95 12.9786 7.95 10.88Z" fill="#007AFF"/>
</svg>
