<svg width="16" height="24" viewBox="0 0 16 24" fill="none" xmlns="http://www.w3.org/2000/svg">
<path fill-rule="evenodd" clip-rule="evenodd" d="M7.99999 0C10.4853 0 12.5 2.01472 12.5 4.5V11.5C12.5 13.9853 10.4853 16 7.99999 16C5.51471 16 3.49999 13.9853 3.49999 11.5V4.5C3.49999 2.01472 5.51471 0 7.99999 0ZM0.749994 10.3284C1.04823 10.3284 1.29564 10.546 1.34214 10.831L1.34999 10.9284V11.0603C1.34999 14.8004 4.32949 17.8284 7.99999 17.8284C11.5924 17.8284 14.5229 14.9278 14.646 11.2981L14.65 11.0603V10.9388C14.65 10.6074 14.9186 10.3388 15.25 10.3388C15.5482 10.3388 15.7956 10.5564 15.8421 10.8415L15.85 10.9388L15.8463 11.3084C15.7233 15.3891 12.5766 18.7005 8.59986 19.0055L8.59999 22.5C8.59999 22.8314 8.33136 23.1 7.99999 23.1C7.70176 23.1 7.45435 22.8824 7.40785 22.5973L7.39999 22.5L7.40046 19.0055C3.42608 18.7009 0.280692 15.3934 0.153964 11.3161L0.149994 10.9284C0.149994 10.597 0.418623 10.3284 0.749994 10.3284ZM4.7 4.49995C4.7 2.67741 6.17746 1.19995 8 1.19995C9.82254 1.19995 11.3 2.67741 11.3 4.49995V11.5C11.3 13.3225 9.82254 14.8 8 14.8C6.17746 14.8 4.7 13.3225 4.7 11.5V4.49995Z" fill="#007AFF"/>
</svg>
