<?xml version="1.0" encoding="utf-8"?>
<svg xmlns="http://www.w3.org/2000/svg" viewBox="0 0 30 30" fill="#ffffff"><path d="M 5 3 A 1 1 0 0 0 4 4 A 1 1 0 0 0 4.0371094 4.2675781 A 1 1 0 0 0 4.0390625 4.2734375 L 5 11 L 2 13 L 23 15 L 2 17 L 5 19 L 4.0390625 25.728516 A 1 1 0 0 0 4 26 A 1 1 0 0 0 5 27 A 1 1 0 0 0 5.3867188 26.919922 L 5.3886719 26.921875 L 5.4316406 26.900391 L 5.453125 26.890625 A 1 1 0 0 0 5.4707031 26.880859 L 27.390625 15.921875 L 27.392578 15.917969 A 1 1 0 0 0 28 15 A 1 1 0 0 0 27.390625 14.080078 A 1 1 0 0 0 27.390625 14.078125 L 27.388672 14.078125 L 5.4785156 3.1230469 A 1 1 0 0 0 5.3886719 3.078125 A 1 1 0 0 0 5 3 z" fill="#ffffff"/></svg>
