<svg width="25" height="25" viewBox="0 0 25 25" fill="none" xmlns="http://www.w3.org/2000/svg">
<path fill-rule="evenodd" clip-rule="evenodd" d="M21.0444 5.55123L20.938 5.42895L21.4509 5.08039L21.5325 4.98407C21.7621 4.65396 21.7255 4.22355 21.451 3.94898C21.1385 3.63656 20.632 3.63656 20.3196 3.94898L19.788 4.27595L19.6485 4.15458C19.0511 3.65546 18.4 3.21863 17.7051 2.85447L17.523 2.76295L17.7326 2.22768L17.7691 2.11995C17.8661 1.72586 17.6711 1.33245 17.3088 1.17868C16.9021 1.00604 16.4325 1.19579 16.2598 1.6025L16.039 2.14995L15.8842 2.0986C15.1514 1.86967 14.3858 1.71541 13.5964 1.6452L13.393 1.63095L13.4 0.999998L13.3915 0.886542C13.3268 0.485868 12.9935 0.199951 12.6 0.199951C12.1582 0.199951 11.8 0.558123 11.8 0.999951V1.62995L11.6021 1.6446C10.8105 1.71579 10.0431 1.87087 9.3097 2.10089L9.129 2.15995L8.95359 1.61207L8.90322 1.51009C8.69315 1.16283 8.27703 1.02257 7.91215 1.17C7.50249 1.33551 7.30458 1.80177 7.47009 2.21143L7.658 2.77095L7.48902 2.8569C6.79602 3.22119 6.1467 3.6573 5.55128 4.15559L5.416 4.27195L4.98043 3.84902L4.88411 3.7675C4.55401 3.53782 4.12359 3.57442 3.84903 3.84898C3.53661 4.1614 3.53661 4.66794 3.84903 4.98036L4.284 5.40195L4.15462 5.55144C3.65551 6.14883 3.21867 6.79997 2.85452 7.49481L2.765 7.67095L2.22773 7.46733L2.12 7.43084C1.7259 7.33382 1.33249 7.52888 1.17873 7.89114C1.00609 8.29785 1.19584 8.76749 1.60254 8.94013L2.153 9.14995L2.09868 9.31559C1.85087 10.1088 1.69055 10.9406 1.62956 11.8H1.00004L0.886588 11.8085C0.485914 11.8731 0.199997 12.2064 0.199997 12.6C0.199997 13.0418 0.558169 13.4 0.999997 13.4L1.63 13.399L1.64447 13.5958C1.71534 14.3856 1.86969 15.1512 2.09855 15.8829L2.154 16.05L1.6026 16.2597L1.50147 16.3119C1.15793 16.528 1.02496 16.9465 1.17873 17.3088C1.35136 17.7155 1.82101 17.9052 2.22772 17.7326L2.765 17.528L2.8538 17.7049C3.21858 18.3999 3.65555 19.051 4.15502 19.6479L4.278 19.789L3.84906 20.2195L3.76754 20.3158C3.53787 20.6459 3.57447 21.0764 3.84903 21.3509C4.16145 21.6633 4.66798 21.6633 4.9804 21.3509L5.408 20.921L5.55148 21.0453C6.14888 21.5444 6.80002 21.9813 7.49486 22.3454L7.678 22.437L7.46737 22.9722L7.43088 23.0799C7.33387 23.474 7.52893 23.8675 7.89119 24.0212C8.29789 24.1939 8.76754 24.0041 8.94018 23.5974L9.157 23.048L9.31563 23.1013C10.0482 23.3301 10.8137 23.4845 11.6034 23.5552L11.8 23.569V24.1999L11.8085 24.3134C11.8732 24.714 12.2065 25 12.6 25C13.0418 25 13.4 24.6418 13.4 24.2L13.399 23.569L13.597 23.5554C14.3889 23.4842 15.1566 23.3291 15.8902 23.0991L16.065 23.04L16.2464 23.5878L16.2968 23.6898C16.5068 24.0371 16.923 24.1773 17.2878 24.0299C17.6975 23.8644 17.8954 23.3981 17.7299 22.9885L17.537 22.43L17.711 22.343C18.404 21.9787 19.0533 21.5426 19.6487 21.0443L19.783 20.927L20.2196 21.3509L20.3159 21.4324C20.646 21.6621 21.0764 21.6255 21.351 21.3509C21.6634 21.0385 21.6634 20.532 21.351 20.2195L20.915 19.798L21.0454 19.6485C21.5445 19.0511 21.9813 18.3999 22.3455 17.7051L22.429 17.537L22.9723 17.7326L23.08 17.7691C23.4741 17.8661 23.8675 17.671 24.0213 17.3088C24.1939 16.9021 24.0042 16.4324 23.5974 16.2598L23.044 16.054L23.0477 16.0512C23.3063 15.268 23.4792 14.4459 23.5553 13.5963L23.569 13.399L24.2 13.4L24.3134 13.3914C24.7141 13.3268 25 12.9935 25 12.6C25 12.1581 24.6418 11.8 24.2 11.8L23.569 11.799L23.5553 11.6021C23.4842 10.8104 23.3291 10.043 23.0991 9.30966L23.048 9.15595L23.5879 8.95354L23.6899 8.90317C24.0371 8.6931 24.1774 8.27699 24.03 7.9121C23.8644 7.50245 23.3982 7.30453 22.9885 7.47004L22.431 7.66295L22.343 7.48898C21.9788 6.79598 21.5426 6.14666 21.0444 5.55123ZM12.6 2.79995C11.0289 2.79995 9.5442 3.16964 8.22808 3.82678L10.3852 7.56409C11.0628 7.26564 11.8121 7.09995 12.6 7.09995C15.4345 7.09995 17.7682 9.24417 18.0676 11.9991H22.3819C22.0715 6.86656 17.8106 2.79995 12.6 2.79995ZM7.18906 4.42789C4.5439 6.18283 2.8 9.18774 2.8 12.6C2.8 16.0122 4.5439 19.0171 7.18906 20.772L9.34716 17.0354C7.98448 16.0343 7.1 14.4204 7.1 12.6C7.1 10.7795 7.98448 9.16556 9.34716 8.16452L7.18906 4.42789ZM22.3819 13.1998H18.0677C17.7688 15.9552 15.4349 18.1 12.6 18.1C11.8121 18.1 11.0628 17.9343 10.3852 17.6358L8.22808 21.3731C9.5442 22.0303 11.0289 22.4 12.6 22.4C17.811 22.4 22.072 18.3328 22.3819 13.1998ZM8.3 12.6C8.3 10.2251 10.2252 8.29995 12.6 8.29995C14.9748 8.29995 16.9 10.2251 16.9 12.6C16.9 14.9748 14.9748 16.9 12.6 16.9C10.2252 16.9 8.3 14.9748 8.3 12.6Z" fill="currentColor" fill-opacity="0.65"/>
</svg>
