<svg width="19" height="19" viewBox="0 0 19 19" fill="none" xmlns="http://www.w3.org/2000/svg">
<path fill-rule="evenodd" clip-rule="evenodd" d="M12.5 0.5C15.8137 0.5 18.5 3.18629 18.5 6.5C18.5 7.51226 18.4265 8.59716 18.2794 9.7547C17.8458 11.9033 17.0666 13.506 15.5006 15.072C14.0324 16.5401 12.4171 17.4497 10.1857 18.1737C8.95927 18.5404 6.5 18.5 6.5 18.5C3.18629 18.5 0.5 15.8137 0.5 12.5V6.5C0.5 3.18629 3.18629 0.5 6.5 0.5H12.5ZM12.5 1.69995H6.5C3.84903 1.69995 1.7 3.84898 1.7 6.49995V12.5C1.7 15.1509 3.84903 17.3 6.5 17.3L8.36029 17.3017C9.1201 17.2593 9.5 16.9041 9.5 16.2361L9.5 14.5924C9.5 11.842 11.7214 9.60806 14.4717 9.59251L15.1304 9.58367L15.5425 9.57078C15.9195 9.55521 16.1913 9.5316 16.3578 9.49995C16.95 9.38736 17.2646 8.93272 17.3016 8.13602L17.3 6.49995C17.3 3.84898 15.151 1.69995 12.5 1.69995ZM16.5819 10.6789C16.7137 10.6538 16.8388 10.6203 16.9658 10.5762C16.4897 11.9428 15.7208 13.1547 14.652 14.2235C13.5572 15.3183 12.2211 16.1888 10.6353 16.8354C10.6778 16.6498 10.7 16.4499 10.7 16.2362L10.7 14.5925C10.7 12.5022 12.3883 10.8044 14.4785 10.7925L14.9668 10.7873C15.7316 10.7745 16.2544 10.7411 16.5819 10.6789Z" fill="#007AFF"/>
</svg>
