<svg width="36" height="36" viewBox="0 0 36 36" fill="none" xmlns="http://www.w3.org/2000/svg">
<path fill-rule="evenodd" clip-rule="evenodd" d="M18 36C27.9411 36 36 27.9411 36 18C36 8.05887 27.9411 0 18 0C8.05887 0 0 8.05887 0 18C0 27.9411 8.05887 36 18 36Z" fill="#EDEDFF"/>
<path fill-rule="evenodd" clip-rule="evenodd" d="M21 12.25C22.1046 12.25 23 13.1454 23 14.25V22.25C23 23.3546 22.1046 24.25 21 24.25H11C9.89543 24.25 9 23.3546 9 22.25V14.25C9 13.1454 9.89543 12.25 11 12.25H21ZM29 13.25V23.25L24 20.25V16.25L29 13.25Z" fill="#007AFF"/>
</svg>
