<svg width="36" height="36" viewBox="0 0 36 36" fill="none" xmlns="http://www.w3.org/2000/svg">
<path fill-rule="evenodd" clip-rule="evenodd" d="M18 36C27.9411 36 36 27.9411 36 18C36 8.05887 27.9411 0 18 0C8.05887 0 0 8.05887 0 18C0 27.9411 8.05887 36 18 36Z" fill="#EDEDFF"/>
<path fill-rule="evenodd" clip-rule="evenodd" d="M18 10.5C22.9706 10.5 27 13.7459 27 17.75C27 21.7541 22.9706 25 18 25C17.081 25 16.1941 24.889 15.359 24.6828C14.2841 26.5805 11.8627 26.1442 11.8627 26.1442C12.6759 25.8788 13.1265 25.1276 13.2144 23.8907C10.6825 22.6081 9 20.3373 9 17.75C9 13.7459 13.0294 10.5 18 10.5Z" fill="#007AFF"/>
</svg>
